# xmcd CD database file
#
# Track frame offsets:
#	150
#	18378
#	39796
#	56723
#	71781
#	92938
#	128801
#	154706
#
# Disc length: 2574 seconds
#
# Revision: 0
# Processed by: cddbd v1.5.1PL0 Copyright (c) Steve Scherf et al.
# Submitted via: CDex 1.51
#
DISCID=650a0c08
DTITLE=The Fat Daddy Band - The Fat Daddy Band
DYEAR=1900
DGENRE=Blues
TTITLE0=Hard Drinkin Man
TTITLE1=Sweat Tea
TTITLE2=From the Soul
TTITLE3=Bye Bye Babe
TTITLE4=Butt Print Blues
TTITLE5=Freight Train
TTITLE6=Put Loving Me On Your List
TTITLE7=Jed
EXTD=
EXTT0=
EXTT1=
EXTT2=
EXTT3=
EXTT4=
EXTT5=
EXTT6=
EXTT7=
PLAYORDER=
